<svg width="128" height="128" viewBox="0 0 128 128" fill="none" xmlns="http://www.w3.org/2000/svg">
<rect width="128" height="128" rx="15" />
<path d="M36.2656 49.6953C35.25 48.7057 34.4036 47.5859 33.7266 46.3359C33.0495 45.0859 32.7109 43.6797 32.7109 42.1172C32.7109 40.6328 33.0234 39.2786 33.6484 38.0547C34.2995 36.8047 35.25 35.737 36.5 34.8516C37.75 33.9401 39.2995 33.237 41.1484 32.7422C43.0234 32.2474 45.1979 32 47.6719 32C49.0521 32 50.6927 32.0911 52.5938 32.2734C54.5208 32.4557 56.3438 32.7422 58.0625 33.1328V41.1016C55.9531 40.5807 53.9089 40.1901 51.9297 39.9297C49.9505 39.6693 48.3229 39.5391 47.0469 39.5391C45.3802 39.5391 44.2214 39.7474 43.5703 40.1641C42.9453 40.5547 42.6328 41.1406 42.6328 41.9219C42.6328 42.599 42.8932 43.237 43.4141 43.8359C43.9349 44.4089 44.651 45.0339 45.5625 45.7109L51.5781 50.3594C53.5312 51.8958 55.1719 53.4453 56.5 55.0078C57.8281 56.5443 58.8828 58.0938 59.6641 59.6562C60.4714 61.2188 61.0443 62.7682 61.3828 64.3047C61.7214 65.8411 61.8906 67.3385 61.8906 68.7969C61.8906 71.8177 61.4479 74.5521 60.5625 77C59.6771 79.4479 58.401 81.5703 56.7344 83.3672C55.0677 85.138 53.0365 86.5052 50.6406 87.4688C48.2708 88.4323 45.5885 88.9141 42.5938 88.9141C39.651 88.9141 37.0339 88.4974 34.7422 87.6641C32.4505 86.8307 30.4974 85.6068 28.8828 83.9922C27.2943 82.3516 26.0833 80.3464 25.25 77.9766C24.4167 75.5807 24 72.8203 24 69.6953C24 67.3516 24.2734 65.1641 24.8203 63.1328C25.3932 61.0755 26.2005 59.2005 27.2422 57.5078C28.3099 55.8151 29.599 54.3177 31.1094 53.0156C32.6198 51.6875 34.3385 50.5807 36.2656 49.6953ZM42.6328 55.3203C41.1745 55.7891 39.8984 56.4271 38.8047 57.2344C37.737 58.0156 36.8516 58.9531 36.1484 60.0469C35.4714 61.1406 34.9245 62.4297 34.5078 63.9141C34.1172 65.3984 33.9219 67.1172 33.9219 69.0703C33.9219 72.612 34.7161 75.4375 36.3047 77.5469C37.9193 79.6302 40.1589 80.6719 43.0234 80.6719C44.4818 80.6719 45.7708 80.3724 46.8906 79.7734C48.0104 79.1745 48.9479 78.3672 49.7031 77.3516C50.4583 76.3099 51.0182 75.112 51.3828 73.7578C51.7734 72.3776 51.9688 70.9193 51.9688 69.3828C51.9688 67.1693 51.4609 65.099 50.4453 63.1719C49.4297 61.2188 47.9193 59.4609 45.9141 57.8984L42.6328 55.3203Z" />
<path d="M77.2422 96.4141H67.9844L95.25 32.8203H104.547L77.2422 96.4141Z"/>

<style>
    path { fill: #111110; }
    rect { fill: #DEDAD3; }
    @media (prefers-color-scheme: dark) {
        path { fill: #DEDAD3; }
        rect { fill: #111110; }
    }
</style>
</svg>
